<svg width="259" height="108" viewBox="0 0 259 108" fill="none" xmlns="http://www.w3.org/2000/svg">
<rect width="259" height="108" fill="#383535"/>
<rect x="11.5" y="10.5" width="236" height="87" fill="#F8EFEF" fill-opacity="0.1" stroke="#FCF6F6"/>
<path d="M100.92 45.816C100.92 46.632 96.864 48.192 88.752 50.496C86.592 54.672 85.272 57.336 84.792 58.488C83.544 61.464 82.92 64.32 82.92 67.056C82.92 68.64 83.448 69.432 84.504 69.432C85.8 69.432 87.504 68.52 89.616 66.696L92.856 63.888C93 63.888 93.072 63.96 93.072 64.104C93.072 64.248 93 64.464 92.856 64.752C92.088 65.904 90.792 67.2 88.968 68.64C87.144 70.032 85.704 70.728 84.648 70.728C82.248 70.728 81.048 69.264 81.048 66.336C81.048 64.224 81.576 61.608 82.632 58.488C82.152 57.144 81.192 56.16 79.752 55.536C79.32 55.344 78.672 55.08 77.808 54.744C76.944 54.408 76.248 54.12 75.72 53.88C75.192 53.64 74.928 53.16 74.928 52.44C74.928 51.672 75.264 51.216 75.936 51.072H77.88C80.376 51.072 83.04 50.784 85.872 50.208L92.784 34.728C93.12 33.864 93.912 33.432 95.16 33.432C96.456 33.432 97.104 33.672 97.104 34.152C97.104 34.296 96.192 36.36 94.368 40.344C92.592 44.28 91.608 46.344 91.416 46.536L90.192 47.688L89.328 49.416C90.48 49.08 93.984 47.88 99.84 45.816C100.32 45.72 100.608 45.672 100.704 45.672C100.848 45.672 100.92 45.72 100.92 45.816ZM85.368 51.432C82.68 52.056 80.256 52.536 78.096 52.872C80.592 54.168 82.2 55.704 82.92 57.48C83.4 56.136 84.216 54.12 85.368 51.432ZM119.263 54.888L119.479 53.52C119.479 52.752 119.215 52.128 118.687 51.648C118.207 51.12 117.631 50.856 116.959 50.856C116.383 56.712 114.967 61.2 112.711 64.32H114.943C114.319 64.704 113.839 64.896 113.503 64.896C113.215 64.896 112.999 64.872 112.855 64.824C112.759 64.776 112.639 64.752 112.495 64.752C112.543 64.8 112.399 64.968 112.063 65.256C111.775 65.496 110.887 66.264 109.399 67.56C107.911 68.856 106.519 69.504 105.223 69.504C103.351 69.504 102.415 68.304 102.415 65.904C102.415 62.976 103.519 59.976 105.727 56.904C104.959 55.032 104.575 53.064 104.575 51C104.575 48.888 104.983 47.064 105.799 45.528C107.383 42.504 109.351 40.992 111.703 40.992C114.679 40.992 116.407 43.536 116.887 48.624C119.287 48.72 120.487 49.968 120.487 52.368C120.487 54.336 120.175 55.32 119.551 55.32C119.359 55.32 119.263 55.176 119.263 54.888ZM111.775 42.576C110.239 42.576 108.823 44.088 107.527 47.112C106.711 48.936 106.303 50.688 106.303 52.368C106.303 54.048 106.375 55.296 106.519 56.112C109.447 52.176 112.519 49.728 115.735 48.768C114.775 44.64 113.455 42.576 111.775 42.576ZM115.807 50.784C114.751 50.928 113.095 51.912 110.839 53.736C108.631 55.512 107.263 56.928 106.735 57.984C107.743 61.632 108.967 63.624 110.407 63.96C111.559 62.904 112.735 60.816 113.935 57.696C115.183 54.576 115.807 52.272 115.807 50.784ZM106.231 58.632C104.647 61.32 103.855 63.456 103.855 65.04C103.855 66.576 104.383 67.344 105.439 67.344C106.735 67.344 108.295 66.336 110.119 64.32C108.535 64.128 107.239 62.232 106.231 58.632ZM151.902 41.928C152.478 42.072 152.766 42.552 152.766 43.368C152.766 44.136 152.142 45.528 150.894 47.544C149.694 49.56 148.758 50.808 148.086 51.288C147.174 53.16 146.358 55.512 145.638 58.344C144.966 61.128 144.63 63.6 144.63 65.76C144.63 67.92 145.254 69 146.502 69C147.99 69 149.742 67.704 151.758 65.112C152.43 64.344 153.726 62.4 155.646 59.28C155.838 58.992 156.006 58.848 156.15 58.848C156.294 58.848 156.366 58.92 156.366 59.064L156.222 59.496C152.526 66.648 149.07 70.224 145.854 70.224C143.07 70.224 141.678 68.208 141.678 64.176C141.678 62.208 142.11 59.28 142.974 55.392C141.15 58.896 139.542 61.656 138.15 63.672C135.558 67.224 133.158 69 130.95 69C128.742 69 127.638 67.512 127.638 64.536C127.638 59.976 130.062 55.128 134.91 49.992C139.758 44.856 144.51 42.024 149.166 41.496C152.67 32.904 155.67 26.184 158.166 21.336C158.982 20.232 160.278 19.68 162.054 19.68C162.726 19.68 163.062 19.848 163.062 20.184C159.318 27.24 155.598 34.488 151.902 41.928ZM129.438 63.168C129.438 65.28 130.086 66.336 131.382 66.336C134.886 66.336 138.318 62.424 141.678 54.6C140.718 54.888 140.046 55.032 139.662 55.032C139.326 55.032 139.158 54.936 139.158 54.744C139.158 54.504 139.47 54.288 140.094 54.096C140.766 53.856 141.582 53.4 142.542 52.728C142.974 51.576 143.31 50.592 143.55 49.776C143.838 48.96 144.078 48.552 144.27 48.552C144.606 48.552 144.774 48.768 144.774 49.2C144.774 49.632 144.558 50.424 144.126 51.576L145.422 50.64L148.446 43.152C144.798 43.968 140.718 46.632 136.206 51.144C131.694 55.656 129.438 59.664 129.438 63.168ZM180.421 54.888L180.637 53.52C180.637 52.752 180.373 52.128 179.845 51.648C179.365 51.12 178.789 50.856 178.117 50.856C177.541 56.712 176.125 61.2 173.869 64.32H176.101C175.477 64.704 174.997 64.896 174.661 64.896C174.373 64.896 174.157 64.872 174.013 64.824C173.917 64.776 173.797 64.752 173.653 64.752C173.701 64.8 173.557 64.968 173.221 65.256C172.933 65.496 172.045 66.264 170.557 67.56C169.069 68.856 167.677 69.504 166.381 69.504C164.509 69.504 163.573 68.304 163.573 65.904C163.573 62.976 164.677 59.976 166.885 56.904C166.117 55.032 165.733 53.064 165.733 51C165.733 48.888 166.141 47.064 166.957 45.528C168.541 42.504 170.509 40.992 172.861 40.992C175.837 40.992 177.565 43.536 178.045 48.624C180.445 48.72 181.645 49.968 181.645 52.368C181.645 54.336 181.333 55.32 180.709 55.32C180.517 55.32 180.421 55.176 180.421 54.888ZM172.933 42.576C171.397 42.576 169.981 44.088 168.685 47.112C167.869 48.936 167.461 50.688 167.461 52.368C167.461 54.048 167.533 55.296 167.677 56.112C170.605 52.176 173.677 49.728 176.893 48.768C175.933 44.64 174.613 42.576 172.933 42.576ZM176.965 50.784C175.909 50.928 174.253 51.912 171.997 53.736C169.789 55.512 168.421 56.928 167.893 57.984C168.901 61.632 170.125 63.624 171.565 63.96C172.717 62.904 173.893 60.816 175.093 57.696C176.341 54.576 176.965 52.272 176.965 50.784ZM167.389 58.632C165.805 61.32 165.013 63.456 165.013 65.04C165.013 66.576 165.541 67.344 166.597 67.344C167.893 67.344 169.453 66.336 171.277 64.32C169.693 64.128 168.397 62.232 167.389 58.632Z" fill="#FFFBFB"/>
</svg>
